<svg xmlns="http://www.w3.org/2000/svg" viewBox="0 0 128 128" height="128" width="128"><g transform="translate(0 80)"><ellipse ry="31.431" rx="33.314" cy="-23.367" cx="36.188" opacity=".574" fill="#1dac84"/><path transform="matrix(3.50676 0 0 3.40833 2.453 -96.45)" d="M9.281 21.844c.254.254-.217.467-.422.422-.555-.124-.644-.835-.421-1.266.398-.77 1.433-.861 2.109-.422.992.645 1.084 2.04.422 2.953-.883 1.217-2.65 1.31-3.797.422-1.443-1.117-1.536-3.261-.422-4.64 1.35-1.67 3.874-1.765 5.484-.422 1.899 1.581 1.993 4.486.422 6.328-1.813 2.127-5.099 2.22-7.172.422-2.355-2.045-2.45-5.712-.421-8.016 2.275-2.584 6.325-2.679 8.859-.422 2.813 2.506 2.908 6.938.422 9.703" opacity=".597" fill="#f2f2f2" fill-rule="evenodd" stroke="#000" stroke-linecap="square" stroke-dasharray="7.99993822,7.99993822" paint-order="markers fill stroke"/></g></svg>